<svg width="24" height="24" viewBox="0 0 24 24" fill="none" xmlns="http://www.w3.org/2000/svg">
<g clip-path="url(#clip0_104_5)">
<path fill-rule="evenodd" clip-rule="evenodd" d="M10.9382 2.29266C11.1257 2.10519 11.38 1.99987 11.6452 1.99987C11.9103 1.99987 12.1646 2.10519 12.3522 2.29266L18.0092 7.94966C18.1047 8.0419 18.1809 8.15225 18.2333 8.27425C18.2857 8.39626 18.3133 8.52748 18.3144 8.66026C18.3156 8.79304 18.2903 8.92471 18.24 9.04761C18.1897 9.17051 18.1155 9.28216 18.0216 9.37605C17.9277 9.46994 17.816 9.5442 17.6931 9.59448C17.5702 9.64476 17.4385 9.67006 17.3058 9.66891C17.173 9.66775 17.0418 9.64017 16.9198 9.58776C16.7978 9.53535 16.6874 9.45917 16.5952 9.36366L11.6452 4.41366L6.69516 9.36366C6.50656 9.54582 6.25396 9.64661 5.99176 9.64433C5.72957 9.64205 5.47875 9.53688 5.29335 9.35148C5.10794 9.16607 5.00277 8.91526 5.00049 8.65306C4.99821 8.39086 5.09901 8.13826 5.28116 7.94966L10.9382 2.29266Z" fill="#949494"/>
<path fill-rule="evenodd" clip-rule="evenodd" d="M12.3763 21.0452C12.1888 21.2327 11.9345 21.338 11.6693 21.338C11.4041 21.338 11.1498 21.2327 10.9623 21.0452L5.30529 15.3882C5.20978 15.296 5.1336 15.1856 5.08119 15.0636C5.02878 14.9416 5.00119 14.8104 5.00004 14.6776C4.99888 14.5449 5.02419 14.4132 5.07447 14.2903C5.12475 14.1674 5.199 14.0557 5.29289 13.9618C5.38679 13.8679 5.49844 13.7937 5.62133 13.7434C5.74423 13.6931 5.87591 13.6678 6.00869 13.669C6.14147 13.6701 6.27269 13.6977 6.39469 13.7501C6.5167 13.8025 6.62704 13.8787 6.71929 13.9742L11.6693 18.9242L16.6193 13.9742C16.8079 13.7921 17.0605 13.6913 17.3227 13.6936C17.5849 13.6958 17.8357 13.801 18.0211 13.9864C18.2065 14.1718 18.3117 14.4226 18.314 14.6848C18.3162 14.947 18.2154 15.1996 18.0333 15.3882L12.3763 21.0452Z" fill="#949494"/>
</g>
<defs>
<clipPath id="clip0_104_5">
<rect width="24" height="24" fill="white"/>
</clipPath>
</defs>
</svg>
